<svg xmlns="http://www.w3.org/2000/svg" viewBox="0 0 312.866 312.866" fill="#00ba39"><path d="M312.866 30.263a6.5 6.5 0 0 0-6.5-6.5h-56.855c.144-4.058.22-8.141.22-12.246a6.5 6.5 0 0 0-6.5-6.5H69.636a6.5 6.5 0 0 0-6.5 6.5c0 4.105.076 8.188.22 12.246H6.5a6.5 6.5 0 0 0-6.5 6.5c0 51.272 37.519 93.568 86.025 97.804a181.532 181.532 0 0 0 3.244 6.699c13.087 25.651 29.67 42.706 47.928 49.735-7.451 5.766-12.261 14.787-12.261 24.915 0 10.848 5.512 20.432 13.883 26.099v6.961c0 20.156-16.394 36.554-36.545 36.554a6.5 6.5 0 0 0-6.5 6.5v15.818a6.5 6.5 0 0 0 6.5 6.5h108.319a6.5 6.5 0 0 0 6.5-6.5V285.53a6.5 6.5 0 0 0-6.5-6.5c-9.763 0-18.942-3.802-25.846-10.707-6.905-6.905-10.708-16.084-10.708-25.847v-6.955c8.375-5.667 13.892-15.254 13.892-26.105 0-10.128-4.81-19.149-12.26-24.915 18.258-7.028 34.841-24.084 47.928-49.735a184.74 184.74 0 0 0 3.243-6.699c48.505-4.236 86.024-46.531 86.024-97.804zm-64.064 6.5h24.444c-1.904 26.565-15.411 50.332-36.299 64.708 6.124-19.785 10.151-41.707 11.855-64.708zm-184.737 0c1.704 23.001 5.73 44.924 11.854 64.708-20.887-14.375-34.394-38.143-36.298-64.708h24.444zm-50.834 0h13.372c1.855 29.618 16.3 56.338 38.944 73.27-28.985-11.382-49.911-39.638-52.316-73.27zm162.324 240.754c7.81 7.81 17.766 12.692 28.538 14.094v3.238h-95.319v-3.243c24.259-3.193 43.045-24.008 43.045-49.129v-1.904a31.64 31.64 0 0 0 4.615.341c1.564 0 3.101-.119 4.605-.34v1.903c0 13.235 5.155 25.679 14.516 35.04zm-19.121-49.603c-10.2 0-18.498-8.298-18.498-18.498s8.298-18.498 18.498-18.498c10.199 0 18.497 8.298 18.497 18.498s-8.298 18.498-18.497 18.498zm0-52.773c-20.617 0-40.358-16.437-55.586-46.282-15.157-29.708-23.837-68.854-24.65-110.841h160.471c-.813 41.987-9.493 81.134-24.65 110.841-15.228 29.846-34.968 46.282-55.585 46.282zm90.884-65.108c22.645-16.932 37.09-43.652 38.945-73.27h13.371c-2.404 33.632-23.33 61.888-52.316 73.27z"/></svg>