<svg xmlns="http://www.w3.org/2000/svg" viewBox="0 0 232.447 232.447" fill="#fff"><path d="M116.211 194.8a7.499 7.499 0 0 0-7.5 7.5v22.643c0 4.143 3.357 7.5 7.5 7.5s7.5-3.357 7.5-7.5V202.3c0-4.143-3.357-7.5-7.5-7.5zm0-157.155c4.143 0 7.5-3.357 7.5-7.5V7.505c0-4.143-3.357-7.5-7.5-7.5s-7.5 3.357-7.5 7.5v22.641a7.499 7.499 0 0 0 7.5 7.499zM50.054 171.78l-16.016 16.008a7.5 7.5 0 0 0 5.302 12.804 7.474 7.474 0 0 0 5.302-2.195l16.016-16.008a7.5 7.5 0 0 0 .003-10.606 7.499 7.499 0 0 0-10.607-.003zM177.083 62.852a7.474 7.474 0 0 0 5.302-2.195L198.4 44.649a7.5 7.5 0 0 0 .003-10.606 7.499 7.499 0 0 0-10.607-.003L171.78 50.048a7.5 7.5 0 0 0 5.303 12.804zM37.645 116.224c0-4.143-3.357-7.5-7.5-7.5H7.5c-4.143 0-7.5 3.357-7.5 7.5s3.357 7.5 7.5 7.5h22.645a7.5 7.5 0 0 0 7.5-7.5zm187.302-7.5h-22.652c-4.143 0-7.5 3.357-7.5 7.5s3.357 7.5 7.5 7.5h22.652c4.143 0 7.5-3.357 7.5-7.5s-3.357-7.5-7.5-7.5zM50.052 60.655a7.476 7.476 0 0 0 5.304 2.197A7.498 7.498 0 0 0 60.66 50.05L44.652 34.042a7.5 7.5 0 0 0-10.606-.001 7.498 7.498 0 0 0-.001 10.606l16.007 16.008zm132.343 111.127a7.5 7.5 0 0 0-10.606-.001 7.5 7.5 0 0 0-.001 10.607l16.007 16.008a7.476 7.476 0 0 0 5.304 2.197 7.5 7.5 0 0 0 5.304-12.803l-16.008-16.008zM116.22 48.7c-37.232 0-67.523 30.291-67.523 67.523s30.291 67.523 67.523 67.523 67.522-30.291 67.522-67.523S153.452 48.7 116.22 48.7zm0 120.047c-28.962 0-52.523-23.561-52.523-52.523S87.258 63.7 116.22 63.7c28.961 0 52.522 23.562 52.522 52.523s-23.561 52.524-52.522 52.524z"/></svg>