<svg xmlns="http://www.w3.org/2000/svg" width="512" height="512" fill="#161617"><path d="M507.606 422.754l-86.508-86.508 42.427-42.426a14.998 14.998 0 0 0-5.863-24.837L203.104 184.13a14.999 14.999 0 0 0-18.974 18.974l84.853 254.559a15.002 15.002 0 0 0 24.837 5.863l42.427-42.426 86.508 86.507c2.929 2.929 6.768 4.394 10.606 4.394s7.678-1.464 10.606-4.394l63.64-63.64c5.858-5.858 5.858-15.355-.001-21.213zm-74.246 53.033l-86.508-86.507c-5.857-5.858-15.356-5.858-21.213 0l-35.871 35.871-67.691-203.073 203.073 67.691-35.871 35.871c-5.853 5.852-5.858 15.356 0 21.213l86.508 86.508-42.427 42.426zM195 120c8.284 0 15-6.716 15-15V15c0-8.284-6.716-15-15-15s-15 6.716-15 15v90c0 8.284 6.716 15 15 15zM78.327 57.114c-5.857-5.858-15.355-5.858-21.213 0-5.858 5.858-5.858 15.355 0 21.213l63.64 63.64c5.857 5.858 15.356 5.858 21.213 0 5.858-5.858 5.858-15.355 0-21.213l-63.64-63.64zm42.427 190.919l-63.64 63.64c-5.858 5.858-5.858 15.355 0 21.213 5.857 5.858 15.356 5.858 21.213 0l63.64-63.64c5.858-5.858 5.858-15.355 0-21.213-5.858-5.858-15.356-5.858-21.213 0zm148.492-106.066l63.64-63.64c5.858-5.858 5.858-15.355 0-21.213-5.857-5.858-15.355-5.858-21.213 0l-63.64 63.64c-5.858 5.858-5.858 15.355 0 21.213 5.857 5.858 15.356 5.858 21.213 0zM120 195c0-8.284-6.716-15-15-15H15c-8.284 0-15 6.716-15 15s6.716 15 15 15h90c8.284 0 15-6.716 15-15z"/></svg>