<svg xmlns="http://www.w3.org/2000/svg" viewBox="0 0 480 448" fill="#00ba39"><path d="M240 216c-13.2 0-24 10.8-24 24s10.8 24 24 24 24-10.8 24-24-10.8-24-24-24zm0 32c-4.4 0-8-3.6-8-8s3.6-8 8-8 8 3.6 8 8-3.6 8-8 8z"/><path d="M420.9 397.7C459.1 353.9 480 298.4 480 240 480 107.7 372.3 0 240 0S0 107.7 0 240c0 56.9 19.9 111.3 56.4 154.5C46.7 398.9 40 408.7 40 420c0 15.4 12.6 28 28 28h336c15.4 0 28-12.6 28-28 0-9.1-4.4-17.2-11.1-22.3zM404 432H134.9l7.7-11.6-13.3-8.9-13.6 20.5H68c-6.6 0-12-5.4-12-12s5.4-12 12-12h28v-16H75.6c-8.8-9.5-16.7-19.7-23.7-30.4l16.5-11-8.9-13.3-15.8 10.5c-16.8-30.5-26.3-64.5-27.6-99.9H40v-16H16.2c1.3-36.1 11.1-70.1 27.6-99.9l15.8 10.5 8.9-13.3L52 118.4C69.2 91.9 91.9 69.2 118.4 52l10.9 16.4 13.3-8.9-10.5-15.8c29.8-16.5 63.8-26.3 99.9-27.6V32h16V16.2c36.1 1.3 70.1 11.1 99.9 27.6l-10.5 15.8 13.3 8.9L361.6 52c26.5 17.2 49.2 39.9 66.4 66.4l-16.4 10.9 8.9 13.3 15.8-10.5c16.5 29.8 26.3 63.8 27.6 99.9H440v16h23.8c-1.2 35.4-10.7 69.4-27.5 99.9l-15.8-10.6-8.9 13.3 16.5 11c-6.9 10.7-14.8 20.9-23.6 30.4H352v16h52c.7 0 1.4.1 2.1.2.2 0 .4.1.6.1 5.3 1.3 9.3 6 9.3 11.7 0 6.6-5.4 12-12 12z"/><path d="M240 72c-92.6 0-168 75.4-168 168s75.4 168 168 168 168-75.4 168-168S332.6 72 240 72zm126.9 84.5c10.2 15.5 17.7 32.9 21.7 51.5h-49.7c-1.8-5.7-4.2-11.3-7-16.6l35-34.9zm-94.9-65c18.7 4 36.1 11.5 51.5 21.7l-35 35c-5.3-2.8-10.8-5.1-16.6-7V91.5zm-64 0v49.7c-5.7 1.8-11.3 4.2-16.6 7l-35-35c15.5-10.3 32.9-17.7 51.6-21.7zm-94.8 65l35 35c-2.8 5.3-5.1 10.8-7 16.6H91.5c4-18.8 11.4-36.2 21.7-51.6zm0 167C103 308 95.5 290.6 91.5 272h49.7c1.8 5.7 4.2 11.3 7 16.6l-35 34.9zm94.8 65c-18.7-4-36.1-11.5-51.5-21.7l35-35c5.3 2.8 10.8 5.1 16.6 7v49.7zm64 0v-49.7c5.7-1.8 11.3-4.2 16.6-7l35 35c-15.5 10.3-32.9 17.7-51.6 21.7zm94.9-65l-35-35c2.8-5.3 5.1-10.8 7-16.6h49.7c-4.1 18.8-11.5 36.2-21.7 51.6zm-34-67.5c-3.6 0-6.8 2.5-7.8 6-2.2 8.4-5.5 16.4-10 23.7-1.9 3.2-1.4 7.2 1.2 9.8l41 41c-6.2 7.5-13.1 14.5-20.7 20.7l-41-41c-2.6-2.6-6.7-3.1-9.8-1.2-7.4 4.5-15.4 7.9-23.7 10-3.5.9-6 4.1-6 7.7V391c-5.3.6-10.6.9-16 .9s-10.7-.3-16-.9v-58.3c0-3.6-2.5-6.8-6-7.7-8.4-2.2-16.3-5.5-23.7-10-3.2-1.9-7.2-1.4-9.8 1.2l-41 41c-7.5-6.2-14.5-13.1-20.7-20.7l41-41c2.6-2.6 3.1-6.7 1.2-9.8-4.5-7.4-7.9-15.3-10-23.7-.9-3.5-4.1-6-7.8-6H88.9c-.6-5.3-.9-10.6-.9-16s.3-10.7.9-16h58.3c3.6 0 6.8-2.5 7.8-6 2.2-8.4 5.5-16.4 10-23.7 1.9-3.2 1.4-7.2-1.2-9.8l-41-41c6.2-7.5 13.1-14.5 20.7-20.7l41 41c1.5 1.5 3.6 2.3 5.7 2.3 1.4 0 2.9-.4 4.2-1.2 7.4-4.5 15.4-7.9 23.7-10 3.5-.9 6-4.1 6-7.7V88.9c5.3-.6 10.6-.9 16-.9s10.7.3 16 .9v58.3c0 3.6 2.5 6.8 6 7.7 8.4 2.2 16.4 5.5 23.7 10 1.3.8 2.7 1.2 4.2 1.2 2.1 0 4.1-.8 5.7-2.3l41-41c7.5 6.2 14.5 13.1 20.7 20.7l-41 41c-2.6 2.6-3.1 6.7-1.2 9.8 4.5 7.4 7.9 15.3 10 23.7.9 3.5 4.1 6 7.8 6h58.3c.6 5.3.9 10.6.9 16s-.3 10.7-.9 16h-58.4z"/><path d="M240 168c-39.7 0-72 32.3-72 72s32.3 72 72 72 72-32.3 72-72-32.3-72-72-72zm0 128c-30.9 0-56-25.1-56-56s25.1-56 56-56 56 25.1 56 56-25.1 56-56 56z"/></svg>