<svg xmlns="http://www.w3.org/2000/svg" width="48.997" height="48.998" fill="#fff"><path d="M45.961 18.702c-.033-.038-.061-.075-.1-.112l-1.717-1.657c1.424-.323 2.957-1.516 2.957-2.74 0-1.426-1.979-1.932-3.668-1.932-1.766 0-1.971 1.21-1.992 2.065l-4.43-4.271c-.9-.891-2.607-1.592-3.883-1.592h-17.26c-1.275 0-2.981.701-3.882 1.592l-4.429 4.271c-.023-.855-.228-2.065-1.992-2.065-1.691 0-3.669.506-3.669 1.932 0 1.224 1.534 2.417 2.958 2.74L3.137 18.59c-.039.037-.066.074-.1.112C1.2 20.272 0 23.184 0 25.297v6.279c0 1.524.601 2.907 1.572 3.938v2.435c0 1.424 1.192 2.585 2.658 2.585h3.214c1.466 0 2.657-1.159 2.657-2.585v-.623h28.795v.623c0 1.426 1.19 2.585 2.658 2.585h3.213c1.467 0 2.657-1.161 2.657-2.585v-2.435a5.723 5.723 0 0 0 1.572-3.938v-6.279c.002-2.113-1.198-5.025-3.035-6.595zm-32.348-6.749c.623-.519 1.712-.913 2.255-.913H33.13c.543 0 1.632.394 2.255.913l5.809 5.63H7.805l5.808-5.63zM1.993 24.347c0-1.546 1.21-2.801 2.704-2.801 1.493 0 6.372 2.864 6.372 4.41s-4.879 1.188-6.372 1.188c-1.494 0-2.704-1.25-2.704-2.797zm8.109 10.226h-1.03l-3.055.005c-.848-.264-1.446-.572-1.869-.903a2.651 2.651 0 0 1-.506-.514 2.011 2.011 0 0 1-.284-.519c-.38-1.074.405-2.061.405-2.061h5.214l3.476 3.99-2.351.002zm21.894.002H17.002a2.833 2.833 0 0 1-2.832-2.831h20.658a2.832 2.832 0 0 1-2.832 2.831zm.658-4.763h-16.31c-1.7 0-3.08-2.096-3.08-4.681h22.47c0 2.586-1.38 4.681-3.08 4.681zm12.987 2.832a2.025 2.025 0 0 1-.285.518 2.595 2.595 0 0 1-.506.514c-.422.331-1.021.641-1.869.903l-3.055-.005h-3.383l3.478-3.99h5.213c0-.001.786.984.407 2.06zm-1.34-5.5c-1.492 0-6.371.356-6.371-1.188s4.879-4.41 6.371-4.41c1.494 0 2.704 1.255 2.704 2.801 0 1.545-1.21 2.797-2.704 2.797z"/></svg>