<svg xmlns="http://www.w3.org/2000/svg" viewBox="0 0 980 962.6" fill="#fff"><path d="M399.7 0L442 167.2V271c-50 7.7-91.6 31.4-124.9 71.1-33.4 39.7-50 86.5-50 140.3s16.6 100.3 50 139.3c33.2 39.1 74.9 63.1 124.9 72v101.8l-49.9 167.1-40.4-267.1L132.6 832l134.5-224.8L0 586l230.6-103.7L0 353.5h267.1l-134.5-221L357.4 267 399.7 0zM442 611c-28.2-7.7-52.6-24.6-73-50.9-20.5-26.2-30.7-54.8-30.7-85.5 0-33.3 10.2-63.1 30.7-89.3 20.5-26.2 44.8-43.2 73-50.9V611zm501.5-96.1h-71.1l36.5 99.9H834l-32.7-99.9h-94.1L686 555.3l46.1 32.7 34.6 73h-71.1l-49.9-34.6-21.1 32.7 48 82.6h98l34.6 57.6h-98l36.5 65.3-13.5 48-48-11.5-36.5-65.3-46.1 71.1-32.7-63.4 42.3-65.3-46.1-82.6h-73v-71.1h61.5L638 482.2l-86.5-144.1H490V267h73l46.1-80.7-42.3-63.4 34.6-65.3 46.1 69.2 34.6-65.3L732 50l11.5 50-36.5 61.5h80.7l-34.6 65.3-80.7-5.8-48 84.5 19.2 32.7 51.9-34.6h73L732 374.7l-46 32.7 21.1 40.3h94.1l32.7-73h74.9l-36.5 73h71.1l36.6 34.6-36.5 32.6zm-392-32.6L492 551.4V413.1l59.5 69.2z"/></svg>