<svg xmlns="http://www.w3.org/2000/svg" viewBox="0 0 296 512" fill="#00ba39"><path d="M296 73h-29.9l19.2-19.4-10.6-10.5L244.9 73h-10.8l19.2-19.4-10.9-10.8L223 61.9V51.1l30.1-29.8-10.8-10.6L223 29.9V0h-15v29.9l-18.9-19.2-10.8 10.6L208 51.1v10.8l-18.9-19.2-10.5 10.9L197.9 73h-10.8l-29.8-30.1-10.6 10.8L165.9 73H136v15h29.9l-19.2 18.9 10.6 10.8L187.1 88h10.8l-19.2 18.9 10.4 10.5L208 98.1v10.8l-29.6 29.8 10.5 10.6 19.1-19.2V160h15v-29.9l19.4 19.2 10.5-10.6-29.9-29.8V98.1l19.4 19.2 10.8-10.4L234.1 88h10.8l29.8 29.6 10.6-10.5L266.1 88H296zm-160.5 72h-96C17.7 145 0 162.7 0 184.5v288C0 494.3 17.7 512 39.5 512h96c21.8 0 39.5-17.7 39.5-39.5v-288c0-21.8-17.7-39.5-39.5-39.5zM160 472.5c0 13.5-11 24.5-24.5 24.5h-96C26 497 15 486 15 472.5v-288C15 171 26 160 39.5 160h96c13.5 0 24.5 11 24.5 24.5v288z"/><path d="M32 472h15v16H32zm96-264v21.9l-17-17V168H96v12.9l-17 17V168H64v61.9l-17-17V168H32v280h15v-21.9l17 17V488h15v-12.9l17-17V488h15v-61.9l17 17V488h15V208h-15zM64 421.9l-17-17v-42.8l17 17v42.8zm0-64l-17-17v-42.8l17 17v42.8zm0-64l-17-17v-42.8l17 17v42.8zm32 143l-17 17v-42.8l17-17v42.8zm0-64l-17 17v-42.8l17-17v42.8zm0-64l-17 17v-42.8l17-17v42.8zm0-64l-17 17v-42.8l17-17v42.8zm32 177l-17-17v-42.8l17 17v42.8zm0-64l-17-17v-42.8l17 17v42.8zm0-64l-17-17v-42.8l17 17v42.8zm0-125.9h15v16h-15z"/></svg>