<svg data-name="Слой 1" xmlns="http://www.w3.org/2000/svg" viewBox="0 0 118.39 39.784"><g fill-rule="evenodd"><path fill="#fcb614" d="M14.617 0L0 14.617v25.167l31.557-.028 14.657-14.524.014-24.695V0H14.617z"/><path d="M87.312 18.73l-4.614 8.65v-9.153h-6.095V36.22h5.68a.97.97 0 0 0 .844-.49l4.795-8.657v9.147h6.09V18.227h-5.849a.97.97 0 0 0-.851.504zm-2.11-2.196a5.437 5.437 0 0 1-5.596-5.335h3.769c0 1.095.523 2.064 1.826 2.064 1.35 0 1.827-.97 1.827-2.064h3.768a5.437 5.437 0 0 1-5.595 5.335zm-28.085 1.693H41.333v5.377h4.777V36.22h6.23V23.604h4.777zM69.515 36.22h5.92l-6.482-17.48a.789.789 0 0 0-.74-.513h-5.866a.789.789 0 0 0-.74.513l-6.482 17.48h5.92a.406.406 0 0 0 .386-.28l.658-1.996h6.382l.658 1.997a.406.406 0 0 0 .386.278zm-5.995-6.78l1.76-5.343 1.76 5.343zm48.39-10.764l-4.32 7.296-4.32-7.296a.915.915 0 0 0-.787-.448h-5.692V36.22h6.23v-8.496l2.773 4.542a.485.485 0 0 0 .414.232h2.767a.485.485 0 0 0 .414-.232l2.77-4.542v8.496h6.23V18.227h-5.691a.915.915 0 0 0-.788.448zm-99.302-.456h6.025v6.414h4.987V18.22h6.025v18H23.62v-6.413h-4.987v6.414h-6.025zm-8.934 18h6.44v-18h-6.44z" fill="#221f20"/></g></svg>