<svg xmlns="http://www.w3.org/2000/svg" viewBox="0 0 210 75"><g fill="#ed1c24" fill-rule="evenodd"><path d="M91.928 12.723h4.417c1.61 0 2.42.795 2.42 2.59v6.362h8.652v-6.362c0-1.795.799-2.59 2.614-2.59h4.223v4.18h-1.803l-.205.205v17.904h-4.829V26.06h-8.652v8.952h-4.829V17.108a.2.2 0 0 0-.205-.204h-1.803zm34.997-.398l.108.012v4.59l-.108-.023a6.544 6.544 0 0 0-6.438 6.77c0 3.977 2.82 7.157 6.438 7.157l.108-.024v4.59l-.108.013a11.65 11.65 0 0 1-11.666-11.735 11.447 11.447 0 0 1 11.666-11.35z"/><path d="M127.033 12.337l2.24.217a11.35 11.35 0 0 1 9.317 11.12 11.655 11.655 0 0 1-9.318 11.495l-2.239.229v-4.59l2.457-.53a7.223 7.223 0 0 0 4.078-6.603 6.76 6.76 0 0 0-4.078-6.241l-2.457-.506zm12.562.386h9.959v4.18h-3.122v4.579h3.122v3.976h-3.122v4.976c0 .205 0 .205.206.205h2.916v4.373h-5.53c-1.61 0-2.408-.795-2.408-2.59V16.904h-2.021z"/><path d="M149.554 12.723h.097c4.429 0 7.043 2.385 7.043 5.976a6.181 6.181 0 0 1-2.009 4.578 5.372 5.372 0 0 1 3.013 4.964c0 4.18-3.219 6.771-7.841 6.771h-.303V30.64h.496a2.429 2.429 0 0 0 2.626-2.59 2.429 2.429 0 0 0-2.626-2.591h-.496v-3.976h.097a2.155 2.155 0 0 0 2.214-2.386 2 2 0 0 0-2.214-2.192h-.097zm17.402 0h2.408v6.373a3.798 3.798 0 0 0-.4 1.59l-1.609 4.579h2.009v4.169h-3.207l-1.416 3.59a2.496 2.496 0 0 1-2.807 1.988h-3.026V30.64h1.005c.411 0 .411 0 .605-.205z"/><path d="M169.364 12.723h2.42l6.438 17.71c.194.206.194.206.593.206h.81v4.373h-2.819a2.51 2.51 0 0 1-2.82-2.193l-1.403-3.385h-3.22v-4.169h2.01l-1.598-4.578a3.623 3.623 0 0 0-.411-1.59zm-77.436 28.65h17.498a2.325 2.325 0 0 1 2.614 2.59v15.121c0 .193 0 .193.206.193h1.61v4.386h-4.224c-1.815 0-2.614-.796-2.614-2.59V45.758a.2.2 0 0 0-.206-.205h-8.047v18.109h-4.829V45.554h-2.008zm34.597-.397l.097.012v4.59l-.097-.024a6.536 6.536 0 0 0-6.438 6.771c0 3.976 2.808 7.157 6.438 7.157l.097-.024v4.59l-.097.012a11.495 11.495 0 0 1-11.472-11.735 11.281 11.281 0 0 1 11.472-11.35z"/><path d="M126.622 40.988l2.311.217a11.205 11.205 0 0 1 9.258 11.12 11.51 11.51 0 0 1-9.258 11.494l-2.311.23v-4.591l2.553-.53a7.092 7.092 0 0 0 3.994-6.603 6.63 6.63 0 0 0-3.994-6.24l-2.553-.507zm12.573.385h4.43c1.609 0 2.407.796 2.407 2.59v15.121c0 .193 0 .193.206.193h5.833V41.373h4.828v17.904h5.833c.206 0 .206 0 .206-.193v-15.12c0-1.795.799-2.59 2.408-2.59h4.43v4.18h-1.816a.2.2 0 0 0-.206.205v15.313c0 1.795-.798 2.59-2.408 2.59h-21.528c-1.803 0-2.614-.795-2.614-2.59V45.76s0-.205-.193-.205h-1.816zm34.392 0h15.09c1.816 0 2.42.796 2.42 2.386v3.783h-4.428V45.76c0-.205 0-.205-.206-.205h-2.808v18.109h-4.84v-18.11h-2.808c-.205 0-.205 0-.205.205v1.783h-4.43V43.76c0-1.59.606-2.386 2.215-2.386zm23.743 0h2.408v6.374a3.624 3.624 0 0 0-.4 1.59l-1.609 4.579h2.01v4.168h-3.22l-1.404 3.386a2.503 2.503 0 0 1-2.82 2.193h-3.012v-4.386h1.004c.411 0 .411 0 .605-.193z"/><path d="M199.738 41.373h2.408l6.45 17.711c.194.193.194.193.605.193H210v4.386h-2.82a2.51 2.51 0 0 1-2.82-2.193l-1.403-3.386h-3.219v-4.168h2.009l-1.61-4.579a3.624 3.624 0 0 0-.399-1.59zM60.924 22.205c.23-.072.532.072.835.47L75.433 36a1.697 1.697 0 0 1 0 2.59L61.76 52.12c-.303.398-.605.494-.835.374s-.375-.47-.375-.976V23.072c0-.494.145-.795.375-.867zM37.532 0h.968l.932.386 14.074 13.927c.605.795.4 1.398-.605 1.398h-5.833a1.788 1.788 0 0 0-1.803 1.795v10.337a1.856 1.856 0 0 1-2.021 1.796h-10.25a1.799 1.799 0 0 1-1.815-1.796V17.506a1.791 1.791 0 0 0-1.815-1.795h-6.232c-1.005 0-1.21-.603-.605-1.398L36.612.386zM15.484 21.904c.254.12.411.47.411.976v29.036c0 .506-.157.807-.411.903a1.127 1.127 0 0 1-1.005-.3L.6 38.59A1.697 1.697 0 0 1 .6 36l13.88-13.723c.412-.397.763-.494 1.005-.373zm17.51 22.855h10.25a1.856 1.856 0 0 1 2.02 1.795v10.94a1.84 1.84 0 0 0 1.804 1.988h5.433c1.005 0 1.404.59.606 1.193L39.432 74.398a2.028 2.028 0 0 1-1.416.602 2.001 2.001 0 0 1-1.404-.602L22.938 60.675c-.81-.603-.411-1.193.593-1.193h5.833a1.842 1.842 0 0 0 1.815-1.988v-10.94a1.799 1.799 0 0 1 1.815-1.795z"/></g></svg>