<svg data-name="Слой 1" xmlns="http://www.w3.org/2000/svg" viewBox="0 0 280 110"><path fill="#c00b25" d="M0 0h280v110H0z"/><path fill="#c00b25" fill-rule="evenodd" d="M19 24.565h242v60.87H19v-60.87z"/><path d="M33.739 56.706c-.589-1.019-1.729-1.942-2.255-4.084-.839-3.493.961-6.68 3.347-8.88a15.209 15.209 0 0 1 3.611-2.739 27.45 27.45 0 0 1 9.37-3.33 47.355 47.355 0 0 1 5.757-.579c.777-.027 5.996.113 6.104.048-.008-.01-.031-.036-.044-.025-.008.014-.057-.016-.072-.02a39.854 39.854 0 0 0-5.92-.751c-5.827-.195-12.155.748-17.125 3.522-5.819 3.252-9.251 9.017-4.578 15.105.312.418 1.317 1.656 1.805 1.733zm8.781 4.423c.597.441 5.004 1.005 6.106 1.13 5.843.715 13.336-.32 18.222-3.084 2.968-1.662 5.995-3.912 7.25-7.2 2.006-5.28-2.674-9.886-3.505-9.934.022.189.941 1.345 1.276 1.898a8.032 8.032 0 0 1-.014 7.851c-3.164 5.724-10.432 8.339-16.927 9.293a47.154 47.154 0 0 1-9.298.269c-.927-.068-2.218-.23-3.11-.223zm-9.663-3.461c-.398.922-.846 1.793-1.208 2.74 2.623.115 5.534.026 8.183.006 2.65-.017 5.456.082 8.089-.073a17.077 17.077 0 0 0 6.601-1.595 11.37 11.37 0 0 0 4.515-3.735c2.624-3.172 5.547-6.929 8.212-10.133a39.182 39.182 0 0 1 2.97-3.22c1.543-1.54 4.253-1.49 6.743-1.533a32.32 32.32 0 0 0 1.587-3.181c-5.531.042-10.684-.078-16.095.445a20.702 20.702 0 0 0-6.597 1.68 9.448 9.448 0 0 0-2.462 1.637 56.529 56.529 0 0 0-5.918 6.574l-3.648 4.668c-1.276 1.585-2.435 3.21-4.165 4.182a15.925 15.925 0 0 1-6.807 1.538z" fill="#f9fbfb" fill-rule="evenodd"/><path d="M80.283 57.166l.114.096a14.499 14.499 0 0 0 2.359 1.159 14.767 14.767 0 0 0 9.408.79c3.345-.917 6.647-3.857 7.131-7.652A4.628 4.628 0 0 0 97 46.649c-1.948-1.054-5.6-.813-4.955-2.318.33-.785 1.889-.84 2.79-.7 1.502.242.804.712 2.426-.674l3.024-2.536c.36-.295.705-.58 1.036-.864a8.57 8.57 0 0 0-2.326-1.25C89.18 34.68 79.683 45.234 85.04 49.702c1.755 1.493 4.225 1.231 5.4 1.984 1.66 1.07-.567 2.743-3.907 1.28-.693-.305-.661-.493-1.14-.052l-3.07 2.586c-.337.283-.583.482-.982.825a8.83 8.83 0 0 1-1.058.841zm135.891 2.031l5.619.01c.236-.075.225-.423.328-.884l1.446-6.416c.077-.25.127-.263.32-.367.203.625.54 1.25.812 1.882.274.597.565 1.284.856 1.944.215.52 1.525 3.577 1.725 3.826l5.877.014 3.443-16.824-5.748-.03c-.346 1.226-.586 2.623-.888 3.888-.165.695-.625 3.446-1.014 3.815-.089-.087-3.228-6.832-3.51-7.684l-5.72-.011-3.546 16.837zm-5.807-8.587c-.837 4.213-7.231 4.485-6.287-.163.857-4.181 7.198-4.505 6.287.163zm-2.309-9.007a11.694 11.694 0 0 0-6.557 2.69 10.604 10.604 0 0 0-3.538 5.664c-2.444 9.334 8.7 11.879 15.054 6.645a10.627 10.627 0 0 0 3.513-5.7c1.53-6.024-2.752-9.742-8.472-9.299zm-49.263 8.19l.515-2.812c1.287-.146 2.538.05 2.106 1.595-.3 1.053-1.355 1.328-2.621 1.217zm-8.014 9.39l6.156.012 1.078-4.782c.04.019.056.022.06.049 0 .02.022.032.03.044l.408 1.034c.152.397.307.832.456 1.233l.91 2.386 6.997.04c-.289-1.02-2.976-6.143-3.054-6.76 1.836-.804 2.814-1.313 3.496-3.355.714-2.214.467-4.024-.866-5.3-1.13-1.098-3.141-1.45-5.179-1.437l-7.047.03-3.445 16.805zm-27.221.023h5.52c.149-.418 2.128-3.54 2.52-4.224l5.124-8.374c.394-.634 2.432-3.87 2.557-4.26l-6.728.043c-.656 1.126-2.604 5.157-3.316 6.576-.183.374-.369.743-.561 1.116-.213.427-.32.834-.732.975-.178-1.396-.483-2.852-.664-4.326-.158-1.318-.508-3.018-.538-4.36l-6.33-.02c.119 1.995 2.731 14.76 3.148 16.854zm111.763-.052l11.84.052.822-4.638-5.463-.036.336-1.66 4.611-.015c.114-1.037.817-3.58.755-4.359l-4.52-.015.417-1.805 5.327-.022.8-4.296h-11.376c-.133.234-3.333 15.417-3.55 16.794zm-97.753.052l11.396.004.845-4.631-5.33-.007.388-1.672 4.717-.011.931-4.349-5.041-.004.441-1.808 5.346-.02.955-4.361h-11.397l-3.251 16.859zm34.44-4.954c-.501.327-2.618 2.195-3.29 2.744-.252.217-.97.706-1.059 1.01a13.744 13.744 0 0 0 7.13 1.479 9.861 9.861 0 0 0 6.066-2.647c2.293-2.356 3.35-6.749-.823-8.202-1.25-.421-2.484-.445-3.347-1.003-.174-2.053 2.782-1.08 3.164-1.033.37.081.365-.1.937-.547.59-.473 1.209-1.034 1.683-1.416a21.664 21.664 0 0 0 1.667-1.484 8.445 8.445 0 0 0-3.518-1.375 10.316 10.316 0 0 0-4.502.315 8.718 8.718 0 0 0-5.484 4.442c-1.21 2.853-.561 5.293 2.696 6.033 1.019.216 3.902.369 2.615 1.74-1.16 1.232-3.36.116-3.935-.056zm12.624-6.671l3.507-.011-2.399 11.605 6.13.031 2.423-11.609 3.308-.027 1.065-5.194-13.009-.024-1.025 5.229zm-76.482 11.658l11.203.01 1.106-5.726-4.891-.009 1.966-11.154-6.022-.008-3.362 16.887zm-8.447-.042l6.106.009 3.442-16.854-6.136.002-3.412 16.843z" fill="#fff" fill-rule="evenodd"/><path d="M66.977 73.532l1.452-7.424h2.45l-.496 2.658h1.19l.488-2.658h2.49l-1.443 7.424h-2.48l.584-3.015h-1.175l-.599 3.015zm7.574 0l1.441-7.442h2.481l-1.44 7.442zm8.517-2.722h-.91l.312-1.572h3.425a7.55 7.55 0 0 1-.617 2.185 3.757 3.757 0 0 1-1.262 1.556 3.652 3.652 0 0 1-2.014.675 3.997 3.997 0 0 1-1.71-.273 2.254 2.254 0 0 1-1.096-.92 2.887 2.887 0 0 1-.387-1.444c.02-.023.03-.039.03-.047v-.016a5.487 5.487 0 0 1 .65-2.739 4.242 4.242 0 0 1 1.646-1.698 4.017 4.017 0 0 1 2.053-.566 3.22 3.22 0 0 1 1.762.483 2.318 2.318 0 0 1 1.054 1.37l-2.528.736a.783.783 0 0 0-.137-.544.563.563 0 0 0-.483-.22 1.13 1.13 0 0 0-.808.462 2.641 2.641 0 0 0-.503 1.128 7.742 7.742 0 0 0-.204 1.505c-.02.641.188.974.661 1.004a1.163 1.163 0 0 0 1.066-1.065zm3.122 2.722l1.446-7.424h2.452l-.492 2.658h1.185l.491-2.658h2.49l-1.44 7.424h-2.487l.584-3.015h-1.168l-.6 3.015zm11.274 0l1.43-7.424h2.422a6.127 6.127 0 0 1 1.787.24 2.028 2.028 0 0 1 1.07.664 1.598 1.598 0 0 1 .365 1.081 4.434 4.434 0 0 1-.121.843c-.432 1.499-1.78 2.227-4.021 2.177l-.454 2.419zm3.253-4.105a1.37 1.37 0 0 0 .918-.248.91.91 0 0 0 .357-.677c.033-.538-.215-.79-.782-.79h-.149l-.344 1.715zm3.82 4.105l1.437-7.424h4.588l-.345 1.763h-2.121l-.19 1.022h1.9l-.366 1.758h-1.887l-.201 1.138h2.088l-.338 1.743zm6.025 0l1.447-7.424h2.622c2.007 0 3.001.632 3.001 1.906a2.634 2.634 0 0 1-.459 1.497 2.366 2.366 0 0 1-1.375.927l1.267 3.094h-2.68l-.774-3.094h-.022l-.573 3.094zm3.229-4a1.229 1.229 0 0 0 .997-.303 1.141 1.141 0 0 0 .352-.837c0-.49-.321-.734-.983-.68l-.366 1.82zm4.098 4l1.431-7.424h4.346l-.324 1.763h-1.897l-.215 1.065h1.777l-.355 1.761h-1.754l-.555 2.835zm8.72-2.991a1.88 1.88 0 0 0 .149.913.582.582 0 0 0 .487.368.188.188 0 0 1 .067-.02h.006a1.261 1.261 0 0 0 .948-.804 6.513 6.513 0 0 0 .458-1.706c.01-.094.016-.15.018-.22.004-.055.004-.125.004-.21 0-.657-.243-.99-.702-.99-.406-.031-.74.244-.987.82a5.33 5.33 0 0 0-.449 1.849zm-2.504-.024a5.596 5.596 0 0 1 .661-2.3 4.599 4.599 0 0 1 1.566-1.67 3.994 3.994 0 0 1 2.221-.575 2.935 2.935 0 0 1 1.544.43 2.295 2.295 0 0 1 .865 1.064 3.74 3.74 0 0 1 .29 1.47 5.385 5.385 0 0 1-.495 2.203 4.503 4.503 0 0 1-1.51 1.806 3.971 3.971 0 0 1-2.4.723 2.47 2.47 0 0 1-2.117-.92 3.291 3.291 0 0 1-.625-2.231zm7.462 3.015L133 66.108h2.611c2.012 0 3.034.632 3.034 1.906a2.612 2.612 0 0 1-.459 1.497 2.363 2.363 0 0 1-1.374.927l1.257 3.094h-2.665l-.78-3.094h-.026l-.575 3.094zm3.233-4a1.158 1.158 0 0 0 .974-.303 1.073 1.073 0 0 0 .375-.837c0-.49-.34-.734-1.006-.68l-.343 1.82zm3.543 4l2.5-7.424h3.082l-.09 3.948h.032a12.007 12.007 0 0 1 .44-1.2c.154-.38.33-.78.525-1.224.182-.44.387-.94.644-1.524h3.044l-.55 7.424h-2.594l.692-4.67h-.033c-.19.484-.361.94-.522 1.345-.164.392-.326.818-.501 1.237-.173.415-.32.777-.447 1.046-.122.277-.272.625-.448 1.042h-2.006l.019-4.654-1.132 4.654zm9.88 0l3.635-7.424h3.004c.044.4.08.935.115 1.667.048.72.104 1.423.143 2.149.06.7.115 1.39.15 2.019.038.63.095 1.154.12 1.589h-2.586v-.958h-1.66l-.372.958zm4.6-2.53c.045-.686.076-1.215.083-1.617.005-.385.035-.883.076-1.49h-.023c-.207.65-.614 1.69-1.161 3.107zm3.341 2.53l1.458-7.442h2.34l1.124 4.482h.026c.027-.737.062-1.324.114-1.78a12.528 12.528 0 0 1 .23-1.42c.113-.481.18-.897.247-1.282h2.363l-1.449 7.442h-2.376l-.993-4.294h-.03c-.077.894-.144 1.567-.23 2.005-.07.447-.218 1.207-.447 2.289zm13.65-2.205l-.579 2.06a4.27 4.27 0 0 1-1.559.281 3.35 3.35 0 0 1-2.336-.847 2.825 2.825 0 0 1-.715-2.538 4.641 4.641 0 0 1 .99-2.522 4.41 4.41 0 0 1 1.86-1.38 5.625 5.625 0 0 1 2.047-.409 3.293 3.293 0 0 1 1.168.183l-.423 2.15a1.077 1.077 0 0 0-.416-.329 2 2 0 0 0-.672-.105 1.793 1.793 0 0 0-1.192.467 2.723 2.723 0 0 0-.764 1.48c-.03.145-.05.368-.081.65a1.365 1.365 0 0 0 .162.726.923.923 0 0 0 .435.444 1.52 1.52 0 0 0 .652.163 2.753 2.753 0 0 0 1.423-.474zm.733 2.205l1.437-7.424h4.592l-.351 1.763h-2.12l-.191 1.022h1.901l-.366 1.758h-1.884l-.209 1.138h2.093l-.338 1.743zm10.59 0l1.092-5.6h-1.367l.381-1.824h5.236l-.358 1.825h-1.413l-1.089 5.599zm6.506 0l.636-3.123-1.433-4.301h2.574l.398 2.297h.018l1.31-2.297h2.548l-2.95 4.282-.62 3.142zm5.425 0l1.431-7.424h2.621c2.011 0 3.031.632 3.031 1.906a2.614 2.614 0 0 1-.462 1.497 2.35 2.35 0 0 1-1.37.927l1.253 3.094h-2.666l-.778-3.094h-.026l-.569 3.094zm3.24-4a1.141 1.141 0 0 0 .967-.303 1.068 1.068 0 0 0 .378-.837c0-.49-.343-.734-1-.68l-.345 1.82zm4.068 4l1.453-7.424h4.58l-.335 1.763h-2.14l-.172 1.022h1.882l-.345 1.758h-1.882l-.23 1.138h2.112l-.332 1.743zm6.295-2.499a1.688 1.688 0 0 0 1.395.818c.463-.013.742-.184.826-.497.056-.16-.155-.426-.604-.776-.445-.344-.76-.62-.942-.791a1.264 1.264 0 0 1-.283-.894.49.49 0 0 0 .035-.198 2.857 2.857 0 0 1 1.108-1.968 3.423 3.423 0 0 1 2.182-.755 4.029 4.029 0 0 1 1.702.396l-.455 2.217a1.596 1.596 0 0 0-1.296-.767.871.871 0 0 0-.441.115.496.496 0 0 0-.266.305c-.063.146.013.308.222.483.227.167.438.33.681.495a4.001 4.001 0 0 1 .622.612 1.516 1.516 0 0 1 .274.899 2.455 2.455 0 0 1-.476 1.457 3.1 3.1 0 0 1-1.304 1.064 3.992 3.992 0 0 1-1.799.406 5.026 5.026 0 0 1-1.645-.299l.464-2.322z" fill="#fff"/></svg>