<svg xmlns="http://www.w3.org/2000/svg" viewBox="0 0 280 110"><path d="M0 0h280v110H0V0z" fill="#fff"/><path d="M74.5 32.8c-7.2.1-8 .2-8.8.7-1.1 1-2 2.2-2.8 3.4L61 39.8h-8.7c-4.8 0-8.8.1-9 .1-.2 0-.5-.2-.7-.5-.2-.4-.2-.6.3-1.1.4-.4.8-.9 1.1-1.4.6-1 1.3-1.9 2.1-2.8.5-.5.7-1.1.6-1.2-.1-.2-2.7-.3-7-.2-6 .1-6.9.1-7.8.6-1.8 1.2-3.3 2.7-4.6 4.4-1.8 2.3-7.1 9-9.1 11.4-3.1 3.8-3.5 4.3-3.3 4.5.1.1 3.6.2 7.8.2 7.4 0 7.7 0 9.1-.7 1.7-.8 2.4-1.6 4.2-4.4 2.4-3.8 1.1-3.4 11.5-3.4 8.7 0 9 0 9 .5 0 .3-.1.7-.4.9-.2.2-.8 1.1-1.5 2.1S53 51.2 52.4 52c-.8 1.1-1 1.5-.7 1.6.2.1 3.1.1 6.4.1 5.9-.1 6-.1 7.6-.9 1.8-.9 3.1-2.2 7.2-7.4 3.4-4.2 3.3-4.1 5.2-6.4 5.4-6.6 5.6-6.8 4.6-6.7-.1.3-3.9.4-8.2.5zm22.5 0c-2 .2-3.2 1-4.7 3.2-.7 1.1-3.2 4.9-5.6 8.5-2.4 3.6-4.7 7.1-5.3 7.8-.8 1.1-.9 1.4-.6 1.5.2.1 3.1.1 6.5.1 8.6-.1 7.9.3 16.3-10.1 2.2-2.7 4.5-5.5 5-6.2.6-.7 1.1-1.3 1.2-1.4 1-1 1.8-2.1 2.4-3.3-.1-.2-13.3-.3-15.2-.1zm48.5 0l-21.5.1-1 .8c-.7.5-3.2 4-7.1 9.9-3.4 5-6.2 9.2-6.3 9.3-.2.1-.3.4-.3.6 0 .4.8.4 6.4.3 5.9-.1 6.5-.1 7.5-.7 1.6-.9 2.8-2.2 3.7-3.7l1-1.5h10.4c9.8 0 10.6 0 12.4-.6 1.3-.3 2.4-1 3.2-1.9 2.2-2.4 2.9-2.3-10.7-2.3-10.8 0-12-.1-12-.5 0-.7 2.9-5.2 3.4-5.4.3-.1 6.7-.1 14.3-.2l13.8-.1 1.6-.7c.9-.4 1.8-1.1 2.5-1.9.9-1.2 1.2-2.1.6-2-.2.3-10.1.4-21.9.5zm39.2 0c-5.9.1-6 .1-6.9.9-1.1 1-2.1 2.2-2.9 3.5-7.5 11.3-10.5 15.7-10.7 15.8-.2.1-.3.3-.3.5 0 .3 2.8.4 18.8.4 20.2 0 20.8 0 22.6-1.4 1.1-.8 2.7-3 2.5-3.3-.1-.2-4.2-.3-12.7-.3-6.9 0-12.6-.1-12.7-.2.6-1.6 1.4-3.1 2.4-4.5.3-.4.8-1.3 1.2-2 .4-.7 1-1.7 1.3-2.1.3-.4.5-.8.7-1.3.2-.3.3-.6.5-.8.5-.7.9-1.4 1.3-2.1.4-.8.8-1.5 1.3-2.2.4-.5.3-1.1-.3-1 0-.1-2.8 0-6.1.1zm25.7.1c.4.8.9 1.6 1.6 2.3.9 1.1 2.9 3.6 4.5 5.6 1.5 1.9 2.9 3.7 3.1 3.9.2.2.3.5.4.8-1.4 2.6-3.1 5-4.9 7.4-1.1 1.2-.9 1.2 5.4 1.2 8.2 0 8.9-.3 12.5-5.6 2.3-3.5 2.1-3.3 7.8-5.5 1.5-.6 2.9-1.1 3.2-1.3 1.4-.7 2.9-1.3 4.4-1.8.6-.2 1.2-.4 1.8-.7.3-.1 1.5-.7 2.6-1.1 1.2-.5 3.9-1.6 6.1-2.5s4.4-1.8 5-1.9c.6-.2 1-.5 1-.6 0-.2-2.9-.3-10.6-.2l-10.7.1-1.3.7c-.7.4-1.5.9-1.8 1.1-.3.2-.7.4-1 .6-.2.1-2.1 1.2-4.1 2.4-1.3.8-2.6 1.5-4 2.2-.2 0-.6-.5-1.1-1.2-1.1-1.9-2.6-3.6-4.3-5.1-.9-.5-1.5-.6-4.6-.7-8.9-.3-10.9-.4-11-.1zm-85.7 28.4l-11.3.1-1 1.3c-.4.5-.8 1.1-1.1 1.7 0 .3.9.4 3.5.5l3.5.1-.1.7c0 .3-.1.6-.3.9-.8.9-1.5 1.9-2.2 3-1.1 1.7-2.3 3.3-3.4 4.9-1.6 2.2-1.9 3-1.1 3 .3 0 1.9 0 3.6-.1l3.1-.1 1.4-2.1c.8-1.1 2.4-3.4 3.6-5.1 1.2-1.7 2.3-3.3 2.5-3.6 1-1.5 1.2-1.6 5.3-1.6h3.9l.8-1.3c.2-.5.6-.9 1-1.3.4 0 .5-.8.2-1-.5-.1-5.7-.1-11.9 0zm19.8 0l-3.4.1-1.2 1.7c-.7.9-2.2 3.2-3.4 4.9-4.4 6.5-4.9 7.2-5.6 8.1-.4.5-.6 1-.5 1.1 1.2.2 2.4.2 3.6.2h3.4l.9-1.2c.5-.7 1.9-2.7 3.1-4.5 1.2-1.8 2.7-4 3.4-4.9 2.9-4.1 3.5-5.1 3.5-5.4 0-.2-.1-.4-.2-.4-.2.1-1.8.2-3.6.3zm47.7-.1c-8.9.1-9.8.1-10.2.6-.3.4-5.5 7.8-7.6 10.9-.2.3-1 1.3-1.7 2.3-.6.6-1 1.4-1.4 2.1 0 .3 3.8.3 20.5.2.5 0 2.5-2.8 2.1-3-.2-.1-3.1-.2-6.4-.2l-6.1-.1.1-.6c.1-.4.3-.8.6-1.2.4-.4.7-.8 1-1.2l.4-.7h12l1-1.1c.4-.4.7-.9.9-1.4 0-.3-1.4-.4-5.7-.4-3.6-.1-5.7-.2-5.8-.4-.1-.1.4-.8.9-1.5l1-1.2h12.8l1-1.2c1.1-1.4 1.3-1.8.7-1.9h-10.1zm23 0c-1.8.2-3.5.5-5.2 1-.2.1-1.1.5-1.9.9-1 .5-1.9 1.1-2.7 1.8-3.2 2.9-1.4 4.9 5.4 6 3.4.5 4.3 1.7 2.2 3-2.7 1.7-6.9 1.4-6.9-.5 0-.3-.1-.6-.3-.9-1.2-.2-2.4-.3-3.6-.1-3.6.2-3.8.3-3.8 2.1 0 2.7 1.1 3.1 7.9 3.1 4.2 0 5.6-.1 7.2-.5 5.4-1.4 9.5-5 8.6-7.4-.4-1.2-1.7-1.7-7.9-2.8-.8-.1-1.6-.4-2.3-.7-1-1 1-2.3 3.3-2.3 2.1 0 2.6.2 2.9 1.2l.3.8 3.3-.1 3.3-.1.5-.9.5-.9-.7-1c-.5-.6-1.1-1-1.8-1.3-2.6-.5-5.5-.6-8.3-.4zm-61.7 2.1c-.8 1.1-1.8 2.5-2.3 3.2s-2 2.8-3.4 4.9-2.9 4.1-3.3 4.7c-.5.6-.8 1.2-.6 1.3 1.2.2 2.4.2 3.6.2h3.4l.9-1.2c.9-1.2 3.1-4.4 3.5-5.1.4-.3.8-.4 1.3-.4 1.6 0 2.1.7 2.6 3.8.1.9.3 1.9.5 2.8 2.7.2 5.5.2 8.2 0 0-.9 0-1.8-.2-2.6-.3-2.1-.5-2.6-1.2-3.3-.3-.3-.6-.6-.8-1 .6-.4 1.2-.6 1.9-.7 2.1-.4 4.1-1.4 5.6-2.9s2-3 1.4-4c-.3-.4-.7-.8-1.2-1-.5-.2-4-.4-9.6-.5l-8.9-.1-1.4 1.9zm12.2 1.2c1 .5 1 1.4.1 2.3-.9.8-2.8 1.3-5.5 1.3-2.5 0-2.7-.3-1.1-2.4l1.2-1.6h2.3c1 0 2 .1 3 .4z" fill="#305998"/></svg>