<svg version="1.1" id="Слой_1" xmlns="http://www.w3.org/2000/svg" x="0" y="0" viewBox="0 0 280 110" xml:space="preserve"><style>.st1{fill-rule:evenodd;clip-rule:evenodd;fill:#e20613}</style><path d="M0 0h280v110H0V0z" fill="#fff"/><path class="st1" d="M36 55L18 72.9h-3L33 55 15 37.2h3L36 55"/><path class="st1" d="M52 51.1l14.1-14h3L53.5 52.6l.9.9 16.5-16.4h3L38 72.8h-3L53 55 35 37.1h3l6.5 6.5 6.5-6.5h3l-8 8 1 1 9.1-9h3L48.5 47.6l1 1 11.6-11.5h3L51 50.1l1 1"/><path class="st1" d="M41 55L23 72.9h-3L38 55 20 37.2h3L41 55"/><path class="st1" d="M46 55L28 72.9h-3L43 55 25 37.2h3L46 55"/><path class="st1" d="M51 55L33 72.9h-3L48 55 30 37.2h3L51 55"/><path d="M252 48.3l-2.8 8h5.6l-2.8-8m-1.9-6.9h3.8L265 67.9h-5.4l-2.9-6.8h-9.4l-2.9 6.8H239l11.1-26.5zm-39.6 26.5V41.4h6.6l7.1 20.3 7.2-20.3h6.7v26.5h-4.9V48l-6.9 19.9h-4.1L215.4 48v19.9h-4.9zM197 48.3l-2.8 8h5.6l-2.8-8zm-1.9-6.9h3.8L210 67.9h-5.4l-2.9-6.8h-9.4l-2.9 6.8H184l11.1-26.5zm-30.9 0h4.9V52h9.5V41.4h4.9v26.5h-4.9V56.8h-9.5v11.1h-4.9V41.4zm-23.6 13.5c0 1.3.4 2.6 1 3.7.5 1.1 1.3 2 2.2 2.8.8.7 1.8 1.3 2.8 1.7.9.4 1.8.6 2.8.6 1.5 0 3.1-.4 4.4-1.2 1.4-.8 2.5-1.9 3.3-3.3.8-1.4 1.3-2.9 1.3-4.5 0-1.5-.4-3-1-4.3-.7-1.4-1.7-2.5-3-3.3-1.3-.9-2.9-1.4-4.5-1.4-1.1 0-2.1.2-3.1.6-1.1.4-2.1 1-3 1.7-1 .8-1.7 1.8-2.3 2.9-.6 1.3-.9 2.6-.9 4zm-4.8.3c-.1-2.7.6-5.4 2-7.7 1.3-2.1 3.1-3.8 5.2-4.9 2-1.1 4.3-1.6 6.6-1.6 1.8 0 3.6.4 5.3 1.1 3.3 1.5 6 4.2 7.4 7.6.7 1.7 1.1 3.5 1.1 5.3v.8c-.2 1.9-.7 3.7-1.6 5.4-1.1 2.1-2.7 3.9-4.6 5.3-2.3 1.5-5 2.3-7.7 2.2-2.1 0-4.1-.5-6-1.3-1.6-.8-3.1-1.9-4.3-3.3-1.1-1.3-1.9-2.8-2.5-4.3-.6-1.6-.9-3.1-.9-4.6zm-14.3-13.8h4.9V53l8.3-11.5h5.9l-10 13 10 13.5h-5.9l-8.3-11.7V68h-4.9V41.4zM97.9 54.9c0 1.3.4 2.6 1 3.7.5 1.1 1.3 2 2.2 2.8.8.7 1.8 1.3 2.8 1.7.9.4 1.8.6 2.8.6 1.5 0 3.1-.4 4.4-1.2 1.4-.8 2.5-1.9 3.3-3.3.8-1.4 1.3-2.9 1.3-4.5 0-1.5-.4-3-1-4.3-.7-1.4-1.7-2.5-3-3.3-1.3-.9-2.9-1.4-4.5-1.4-1.1 0-2.1.2-3.1.6-1.1.4-2.1 1-3 1.7-1 .8-1.7 1.8-2.3 2.9-.7 1.3-1 2.6-.9 4zm-4.9.3c-.1-2.7.6-5.4 2-7.7 1.3-2.1 3.1-3.8 5.2-4.9 2-1.1 4.3-1.6 6.6-1.6 1.8 0 3.6.4 5.3 1.1 3.3 1.5 6 4.2 7.4 7.6.7 1.7 1.1 3.5 1.1 5.3v.8c-.2 1.9-.7 3.7-1.6 5.4-1.1 2.1-2.7 3.9-4.6 5.3-2.3 1.5-5 2.3-7.7 2.2-2.1 0-4.1-.5-6-1.3-1.6-.8-3.1-1.9-4.3-3.3-1.1-1.3-1.9-2.8-2.5-4.3-.6-1.6-.8-3.1-.9-4.6zM74.6 41.4H80l5.7 12.1 5.8-12.1h5.4l-8.7 16.7v9.8h-4.9v-9.8l-8.7-16.7z" fill-rule="evenodd" clip-rule="evenodd" fill="#1d1d1b"/></svg>