<svg data-name="Слой 1" xmlns="http://www.w3.org/2000/svg" viewBox="0 0 280 110"><path fill="#fff" d="M0 0h280v110H0z"/><g fill-rule="evenodd"><path d="M24 62.944c4.403.057 3.088-.514 8.978-4.517 1.315-.915 2.688-1.773 4.117-2.63a46.228 46.228 0 0 1 4.404-2.46c.915.63 2.916 3.03 5.89 1.487 2.116-1.03 2.859-2.63 2.287-5.719a139.09 139.09 0 0 1 8.292-3.316 59.194 59.194 0 0 1 9.035-2.802l-3.831 19.9 11.037.057 5.89-31.28c-3.946-.057-13.496 2.916-17.385 4.289a93.274 93.274 0 0 0-24.646 13.553 92.313 92.313 0 0 0-7.32 6.233c-.515.457-.915.8-1.43 1.315l-3.946 4.175a3.937 3.937 0 0 1-.629.743c-.571.63-.4.172-.743.972zm86.006-.114l10.694.114 2.974-14.754c2.573-1.486 8.92-3.83 7.662 2.803-.343 1.944-2.287 10.636-2.23 11.837l10.408.171c.629-.171.457-.8.743-2.058l1.373-7.206c1.2-6.29 3.088-13.552-8.12-12.409-4.804.515-5.719 1.43-8.979 2.345l2.288-12.009h-5.947c-2.688 0-2.974.057-4.46 1.544-1.545 1.544-2.06 6.69-2.574 9.436-.972 5.146-3.317 15.897-3.832 20.186zm94.184-13.267c.343-3.717 1.201-5.09 5.147-5.032 1.83.057 2.974-.172 4.174.915 1.259 1.2.515 2.287.458 4.06l-9.779.057zm15.955 12.466l.915-4.346c-3.603.4-6.977 1.087-10.694.972-3.202-.057-7.72-.743-6.92-4.574l20.473-.115c1.258-2.63 1.487-7.949-.171-10.122-3.374-4.403-23.218-5.26-28.536 1.544a11.302 11.302 0 0 0-2.116 3.946c-1.944 5.89-1.658 10.122 4.46 12.18 6.005 1.945 16.184 1.773 22.589.515zm6.175-4.403l-.8 4.346c7.377 1.201 29.508 3.03 29.68-7.491.057-5.09-6.12-5.376-9.95-5.604-1.602-.115-6.406.171-6.005-1.945.572-3.145 13.495-1.43 15.954-1.2l.801-4.175c-5.433-.629-23.046-3.088-26.991 3.488a9.37 9.37 0 0 0-.801 1.716 7.083 7.083 0 0 0 .4 4.232c1.544 3.26 7.434 3.316 11.209 3.488 1.43.057 3.488-.115 3.488 1.601.057 4.003-12.867 1.258-16.984 1.544zm-119.001-.286c-2.574.229-13.668 1.601-15.097-1.315-.915-1.83-.4-7.434 1.83-8.921a9.546 9.546 0 0 1 4.517-1.372c3.775-.458 7.263.114 10.923.514l.8-4.632c-5.947-.858-14.124-1.83-19.9-.286-10.179 2.688-13.839 14.697-7.777 19.1 5.49 4.003 23.103 2.23 23.789 1.487.057-.172.8-4.06.915-4.575zm68.393 5.604h10.75c.401-.743 5.433-28.135 5.891-31.166-13.381 0-10.293-1.715-14.754 20.816-.629 3.374-1.43 6.976-1.887 10.35zm-15.44 0h10.922l5.719-31.108c-13.21-.115-10.293-1.945-14.754 20.872-.629 3.26-1.487 6.977-1.887 10.236zm-15.669 0h10.866l4.003-21.387-10.808.057-4.06 21.33z" fill="#522582"/><path d="M55.738 48.934c-.286 8.864-7.777 12.352-15.211 6.976-1.716.458-10.809 5.547-11.495 6.52 7.263.4 16.584 1.143 23.389-.515 7.205-1.773 10.179-6.29 9.607-14.983a33.59 33.59 0 0 0-6.29 2.002z" fill="#a9cf46"/><path d="M67.632 70.035c4.804 0 4.232 2.173-.457 2.173zm-5.318 8.52h3.488l.915-4.23c1.258-.172 1.43.628 1.83 1.6.343.858.8 1.773 1.087 2.63h3.66a20.834 20.834 0 0 0-2.345-4.517c3.946-.686 3.66-4.117 2.402-5.375-1.201-1.144-6.977-.972-8.692-.686l-2.345 10.579zm29.393-8.291c.972 0 2.116-.229 2.63.686a3.637 3.637 0 0 1 0 2.688c-.686 2.287-1.372 2.688-3.945 2.573zm-5.26 8.349c2.115 0 5.89.229 7.72-.343a5.41 5.41 0 0 0 3.602-4.117c.572-2.345-.057-4.861-1.887-5.719-1.258-.572-5.662-.743-7.148-.4l-2.288 10.579zm24.76-7.834l.4 3.774h-2.172zm-7.49 7.834c4.116 0 3.43.457 4.46-1.773h3.66l.114 1.659h3.374l-1.716-10.58h-2.745c-1.315 0-1.487.858-4.003 5.204-.686 1.258-2.745 4.518-3.145 5.49zm-24.477-4.06a14.859 14.859 0 0 1 1.888-3.66l.286 3.66zm-1.257 2.287h3.66l.114 1.716h3.374l-1.658-10.637h-3.717l-6.234 10.637h3.66l.8-1.716zm71.538-39.515l10.808.057 1.144-5.947c-2.173 0-6.92-.343-8.692.286a5.331 5.331 0 0 0-3.26 5.604zm-32.938 41.231h8.978l.514-2.574H120.7l1.658-8.063h-3.43l-2.345 10.637zm-17.956 0c4.288 0 3.26 1.086 4.632-5.204.4-1.83.857-3.66 1.2-5.49h-3.488l-2.344 10.694z" fill="#522582"/></g></svg>