<svg xmlns="http://www.w3.org/2000/svg" viewBox="0 0 280 110"><path d="M0 0h280v110H0V0z" fill="#fff"/><path d="M167.4 84.5V56.9h31.1v7.5h-14.7v2.7h13.4v7.1h-13.4v2.9h15.1v7.5l-31.5-.1zm0-37.7V30.1c2.2-1.3 4.7-1.9 7.2-1.9h29.6v20.5h-7.3v-14h-22.2c-3.2 0-5.9 1.7-5.9 3.7s2.6 3.7 5.9 3.7h19.8l-4.9 6.6h-14.8c-2.7 0-5.2-.6-7.4-1.9zm34.1 35.5l5.3-7.8c2.1.9 4.2 1.6 6.4 2.2 1.7.5 3.5.7 5.3.7.9 0 1.8-.1 2.7-.4.6-.2 1-.6 1-1 0-.8-1.6-1.4-4.9-1.8-.8-.1-1.6-.2-2.5-.3-2.8-.3-5.6-1.2-8-2.7-1.7-1-2.7-2.8-2.8-4.8 0-3 1.8-5.4 5.4-7.3 4.4-2.1 9.3-3 14.1-2.8 2.6 0 5.3.2 7.9.6 2.7.4 5.3 1.1 7.9 1.9l-5.1 7.3c-1.6-.7-3.2-1.2-4.9-1.6-1.6-.4-3.1-.6-4.7-.6-.9 0-1.8.1-2.7.4-.6.2-.9.6-.9 1 0 .8 2.3 1.5 7 2.1.7.1 1.3.2 1.7.2 2.7.3 5.3 1.2 7.6 2.6 1.7 1 2.7 2.8 2.8 4.8 0 3.1-1.9 5.6-5.6 7.5-4.5 2.1-9.5 3.1-14.5 2.9-3.1 0-6.1-.3-9.2-.8-3.3-.6-6.3-1.3-9.3-2.3zM233 48.7h7V36c0-6.4-6.1-7.8-9.2-7.8h-23.7v20.5h7.2v-14h15.1c1.8-.2 3.4 1.1 3.6 2.9v11.1zm-88.6 20.7c.9 0 1.7-.2 2.5-.6 1.1-.5 1.6-1.8 1.1-2.9-.2-.5-.6-.9-1.1-1.1-.8-.4-1.6-.6-2.5-.7v-7.2h.9c6.1 0 10.8.8 14 2.4 3.2 1.6 4.9 3.9 4.9 6.9 0 1.9-.9 3.7-2.4 4.9-1.9 1.4-4.2 2.2-6.6 2.2l12.4 11.2V56.9h-.1v27.7h-18.6l-4.4-4.9-.1-10.3zm23-39.3v16.8c-3.1-1.7-5.1-4.9-5.3-8.4.2-3.6 2.2-6.8 5.3-8.4zm-23 18.6v-7.6l7.4 7.6h-7.4zm0-14.4v-6.1h8l-8 6.1zm8.7-6.1h7.3v20.5h-7.3V28.2zM140.6 64v5.4h2.6c.4 0 .8 0 1.2-.1v10.4l-3.8-4.3v9.1h-16.4V56.9h20.2V64h-3.8zm3.8-35.8v6.1l-3.8 2.9 3.8 3.9v7.6h-2.7l-11.2-11.5 11.8-9h2.1zM97.9 84.6V61.4l.6.8c.5.7.9 1.4 1.3 2.1 0 .1.1.1.1.2.2-.4.6-1.1 1.2-2 .1-.1.2-.2.2-.3l3.9-5.4h19L108 72.3v12.3H97.9zm0-35.9v-6.6h10.6c3.2 0 5.9-1.7 5.9-3.7s-2.6-3.7-5.9-3.7H97.9v-6.6h10.6c6.8 0 12.4 4.6 12.4 10.3 0 5.6-5.6 10.3-12.4 10.3H97.9zM123 24.6h7.3v24.1H123V24.6zm-25.1 3.6v6.6H87.3c-3.2 0-5.9 1.7-5.9 3.7s2.6 3.7 5.9 3.7h10.6v6.6H87.3c-6.9 0-12.4-4.6-12.4-10.3 0-5.6 5.6-10.3 12.4-10.3h10.6zm0 33.2v23.2h-6.8V72.3L75.5 56.9h19.1l3.3 4.5zM49.4 84.6V65.9h-9.3v-9.1h35.4v9.1h-9.3v18.7H49.4zm16.5-35.9h7V36c0-6.4-6.1-7.8-9.2-7.8H40v20.5h7.2v-14h15.1c1.8-.2 3.4 1.1 3.6 2.9v11.1z" fill="#4db848"/></svg>