<svg version="1.1" id="Слой_1" xmlns="http://www.w3.org/2000/svg" x="0" y="0" viewBox="0 0 280 110" xml:space="preserve"><style>.st1{fill:#050505}</style><path fill="#fff" d="M0 0h280v110H0z"/><path class="st1" d="M89.4 37.3l-2.5 8.3H79l2.5-8.3h-9S65.7 59.5 65.6 60h9c.1-.2 2.9-9.5 2.9-9.5h7.9s-2.8 9.1-2.9 9.5h9l6.9-22.7m38.4 2.5l-.4.3.8-2.8h-9L121.3 60h9l4.2-13.7c.4-1.8 1.9-3 3.7-3.2h2.3c.6 0 1.2.2 1.6.7.3.4.4.9.4 1.3s-.1.8-.2 1.2L138.2 60h9c.1-.2 4.9-16 4.9-16 .2-.7.3-1.4.3-2.2 0-1-.3-2.1-.9-2.9-1-1.4-2.8-2-5.3-2-3.3-.1-6.6.9-9.4 2.9m-28.5 10.3c1.5 0 3 .2 4.5.7l.1.1-1 3.3h-.1c-1.6.7-3.3 1.1-5 1.1-1.5 0-2.6-.4-3.1-1-.2-.3-.3-.6-.3-1 0-.2 0-.5.1-.7.5-1.5 2.3-2.5 4.8-2.5m-7.2-11.2l1.4 4.8c2.3-1 4.7-1.5 7.1-1.7 2.8 0 4.4.4 5 1.2.3.5.4 1.1.2 1.6l-.6 1.8-.2-.1c-2.2-.7-4.4-1.1-6.7-1.2-2.8-.1-5.5.7-7.8 2.2-2 1.3-3.5 3.3-4.2 5.6-.6 2-.5 3.8.5 5 1.1 1.4 3.2 2.2 6.1 2.2 2.9 0 5.8-.7 8.5-2l.3-.2-.5 1.7h9l4.8-15.7c.2-.6.3-1.2.3-1.9 0-.9-.3-1.9-.8-2.6-1.4-2-4.8-3-9.7-3-4.4.3-8.6 1-12.7 2.3m70.8-1.7l-8.6 6.8 2.1-6.8h-9s-6.9 22.6-7 23h9l2.9-9.3 6.6 9.3h9.6c-.4-.5-8.3-11.8-8.3-11.8s12.9-10.7 13.6-11.2"/><path class="st1" d="M184.5 53.7c-.8-1.1-.8-2.7-.1-5.1.9-2.9 2.9-6.4 7.5-6.4 1.8 0 3 .4 3.6 1.3.8 1.1.8 2.7.1 5.1-.9 2.9-2.9 6.4-7.5 6.4-1.8.1-2.9-.3-3.6-1.3m-8.8-5c-1 2.8-.6 6 1.1 8.4 1.9 2.5 5.2 3.9 9.5 3.9 10 0 15.6-3.8 18.2-12.5 1-2.8.6-6-1-8.4-1.9-2.5-5.2-3.9-9.5-3.9-9.3 0-15.9 4.6-18.3 12.5m46.3-6.5c1.8 0 3 .4 3.6 1.3.8 1.1.8 2.7.1 5.1-.9 2.9-2.9 6.4-7.5 6.4-1.8 0-3-.4-3.6-1.3-.8-1.1-.8-2.7-.1-5.1.8-2.9 2.9-6.4 7.5-6.4m-16.3 6.5c-1 2.8-.6 6 1.1 8.4 1.9 2.5 5.2 3.9 9.5 3.9 10 0 15.6-3.8 18.2-12.5 1-2.8.6-6-1-8.4-1.9-2.5-5.2-3.9-9.5-3.9-9.2 0-15.9 4.6-18.3 12.5M254.8 37c-.1.1-8.8 7.4-8.8 7.4l2.3-7.4h-9l-7.2 23.4h9c.1-.2 2.9-9.5 2.9-9.5s7 9.4 7.1 9.5h9.9l-8.9-11.9S264.3 37.6 265 37"/><path d="M68.3 33.4l-.1-1.1h-7.6c.9 9-5.3 19.1-14.2 21.5-.1 0-.2 0-.2-.1v-.1c7.2-4.6 11.3-12.7 10.6-21.2h-7.5c.3 7.3-4.6 14-12.2 16.8-.1 0-.1 0-.2-.1 0 0 0-.1.1-.1 5.6-3.6 8.8-9.9 8.5-16.5H38C38 41 30.3 47 15 47c.2.1.4.2.6.4 9.9 5.4 15.1 8.8 22.4 14.7 1.2 1 2.7 1.5 4.3 1.4 19.8-1.3 26.9-18.6 26-30.1" fill="#ee732c"/><path d="M105.3 72.8c-.3-.5-.4-1.2-.1-1.7.5-1.9 2.3-3.1 4.2-2.9 1.1-.1 2.2.3 3.1.9l-1.1 3.5c-1.2.6-2.5 1-3.8 1-.8 0-1.7-.2-2.3-.8m8.6-8.3l-.9 2.9c-1.1-.6-2.3-.9-3.5-.8-3.4 0-6.1 1.7-6.9 4.2-.4.9-.3 2 .3 2.8.7.9 2 1.4 3.9 1.4 1.4 0 2.8-.3 4.1-.8l-.2.7h2.7l3.4-11.2-2.9.8zm6.2 2.9l.2-.6h-2.7l-2.5 8.1h2.7l1.4-4.6c.4-1.3 1.7-2.1 3.5-2.1.7 0 1.3.1 2 .3l.2.1 1.3-1.6-.5-.1c-.7-.2-1.5-.2-2.2-.2-1.3-.1-2.4.2-3.4.7m6.4-.6l-2.5 8.1h2.7l2.5-8.1m-2.5-1.9c-.1.2 0 .5.1.6.4.4.9.6 1.4.5.8 0 1.7-.4 1.9-1 .1-.2 0-.5-.1-.7-.3-.4-.8-.6-1.3-.5-.8 0-1.6.4-2 1.1m13 1.9l-5.5 6-1.8-6h-2.8l3 8.1h2.1l8-8.1m.4 0l-2.5 8.1h2.7l2.5-8.1m-2.6-1.9c-.1.2 0 .5.1.6.4.4.9.6 1.4.5.8 0 1.7-.4 1.9-1 .1-.2 0-.5-.1-.7-.3-.4-.8-.6-1.3-.5-.8 0-1.6.4-2 1.1m6.8 2.5l.2-.6h-2.7l-2.5 8.1h2.7l1.4-4.6c.4-1.4 1.9-2.1 4-2.1 1.2 0 2 .2 2.3.6.2.4.2.9.1 1.3l-1.5 4.8h2.7l1.5-4.8c.3-.7.2-1.6-.2-2.2-.6-.9-2-1.3-4.1-1.3-1.5 0-2.7.3-3.9.8m11.3 5.4c-.3-.5-.4-1.2-.1-1.7.5-1.9 2.3-3.1 4.2-2.9 1.1-.1 2.2.2 3.1.9-.1.3-1 3.3-1.1 3.5-1.2.6-2.5 1-3.9 1-.7 0-1.6-.2-2.2-.8m-2.7-1.9c-.2.5-.2.9-.2 1.4 0 .5.2 1 .5 1.4.7.9 2 1.4 3.9 1.4 1.4 0 2.8-.3 4.1-.8-.5 1.3-1.7 1.9-6.2 2h-.4l.7 1.4h.2c2 .1 4-.2 6-.9 1.2-.5 2.2-1.5 2.5-2.7l2.2-7.2h-2.7s-.1.4-.2.7c-1.1-.6-2.3-.9-3.5-.8-3.4-.2-6.1 1.5-6.9 4.1m24.9-2.7c.9-.1 1.8.2 2.5.8.2.2.3.5.3.8v.3h-6.9c1-1.4 2.5-2.1 4.1-1.9m-7 2.5c-.1.4-.2.9-.2 1.3 0 .5.2 1 .5 1.4 1.1 1.5 3.5 1.6 4.5 1.6 1.8 0 3.7-.3 5.4-.9l.4-.1-1.2-1.3-.2.1c-1.3.5-2.7.7-4.1.7-.9.1-1.8-.2-2.5-.8-.2-.2-.3-.6-.3-.9v-.3h9.4l.1-.1c.1-.2.2-.4.3-.7.1-.4.2-.8.2-1.2 0-.5-.2-1-.5-1.4-.8-1-2.3-1.6-4.5-1.6-3.6.1-6.6 1.8-7.3 4.2m23.8-2.9c-.5-.6-1.5-1.2-3.6-1.2-1.2 0-2.3.2-3.4.7l.2-.6h-2.7l-2.5 8.1h2.7l1.4-4.6c.4-1.4 1.7-2.1 3.6-2.1 1 0 1.7.2 2 .6.2.4.2.9 0 1.4l-1.5 4.8h2.7l1.4-4.6c.4-1.4 1.7-2.1 3.6-2.1 1.1 0 1.7.2 2 .5.2.4.2 1 0 1.4l-1.5 4.8h2.7l1.5-4.8c.3-.8.2-1.6-.2-2.3-.6-.8-1.9-1.2-3.8-1.2-1.6 0-3.2.4-4.6 1.2m12.1 4.8c-.3-.5-.4-1.2-.2-1.7.5-1.8 2.3-2.8 4.7-2.8 1-.1 2 .2 2.8.9.3.5.4 1.1.1 1.7-.5 1.8-2.3 2.8-4.8 2.8-.9.2-1.9-.2-2.6-.9m0-4.9c-1.3.6-2.4 1.7-2.8 3.1-.3.9-.2 1.9.4 2.6.8 1.1 2.5 1.7 4.9 1.7 1.7 0 3.3-.3 4.8-1.1 1.3-.6 2.4-1.7 2.8-3.1.3-.9.2-1.8-.3-2.6-.8-1.1-2.5-1.7-4.9-1.7-1.7 0-3.4.4-4.9 1.1m13.5-3.2s-.6 1.9-.7 2.3h-1.8l-.4 1.5h1.7c-.2.7-1.4 4.7-1.4 4.7-.1.2-.1.5-.1.7 0 .2.1.5.2.7.4.5 1.1.7 2.3.7.9 0 1.9-.1 2.8-.3h.1l.8-1.6-.6.1c-.7.1-1.3.2-2 .2s-.9-.1-.9-.1-.1-.1 0-.4c0 0 1.2-3.8 1.5-4.7h3.5l.5-1.5h-3.5c.2-.6.9-3.1.9-3.1m3.9 3.1l-2.5 8.1h2.7l2.5-8.1m-2.6-1.9c-.1.2 0 .5.1.6.4.4.9.6 1.4.5.8 0 1.7-.4 1.9-1 .1-.2 0-.5-.1-.7-.3-.4-.8-.6-1.3-.5-.8 0-1.5.4-2 1.1m9.8 3.3c1-.1 2 .2 2.8.9.3.5.4 1.1.1 1.7-.5 1.8-2.3 2.8-4.8 2.8-1 .1-2-.2-2.7-.9-.2-.2-.3-.5-.3-.8 0-.3 0-.6.1-.9.5-1.8 2.3-2.8 4.8-2.8m-4.6-.5c-1.3.6-2.4 1.7-2.8 3.1-.3.9-.2 1.9.4 2.6.8 1.1 2.5 1.7 4.9 1.7 1.7 0 3.3-.3 4.8-1.1 1.3-.6 2.4-1.7 2.9-3.1.3-.9.2-1.9-.3-2.6-.8-1.1-2.5-1.7-4.9-1.7-1.8 0-3.5.4-5 1.1m14.8-.3c0-.1.2-.6.2-.6h-2.7l-2.5 8.1h2.7l1.4-4.6c.6-1.9 3-2.1 4-2.1 1.2 0 2 .2 2.3.6.2.4.2.9.1 1.3l-1.5 4.8h2.7l1.5-4.8c.3-.7.2-1.6-.3-2.2-.6-.8-2-1.3-4.1-1.3-1.4 0-2.7.3-3.8.8" fill="#a3a3a3"/></svg>