<?xml version="1.0" standalone="no"?>
<!DOCTYPE svg PUBLIC "-//W3C//DTD SVG 20010904//EN"
 "http://www.w3.org/TR/2001/REC-SVG-20010904/DTD/svg10.dtd">
<svg version="1.0" xmlns="http://www.w3.org/2000/svg"
 width="700.000000pt" height="700.000000pt" viewBox="0 0 700.000000 700.000000"
 preserveAspectRatio="xMidYMid meet">
<metadata>
Created by potrace 1.11, written by Peter Selinger 2001-2013
</metadata>
<g transform="translate(0.000000,700.000000) scale(0.100000,-0.100000)"
fill="#000000" stroke="none">
<path d="M1185 6473 c-92 -30 -155 -118 -155 -213 0 -92 53 -172 137 -208 46
-19 67 -20 646 -20 329 0 600 -2 602 -4 3 -2 -28 -26 -68 -52 -145 -98 -285
-214 -432 -360 l-150 -149 -795 -1 -795 -1 -48 -24 c-110 -54 -154 -183 -104
-301 26 -59 102 -117 166 -125 14 -2 301 -4 638 -4 l612 -1 -36 -62 c-28 -51
-92 -180 -144 -293 -24 -53 -104 -281 -114 -327 -2 -9 -13 -50 -24 -90 -17
-64 -25 -101 -46 -208 -3 -14 -8 -45 -11 -70 -3 -25 -8 -54 -10 -65 -19 -95
-26 -566 -11 -700 11 -97 17 -136 22 -161 3 -12 7 -39 11 -60 51 -337 207
-736 421 -1075 40 -64 73 -118 73 -120 0 -2 -156 -4 -348 -4 -337 -1 -348 -1
-388 -22 -78 -42 -124 -116 -124 -203 0 -89 43 -160 125 -203 39 -21 50 -22
580 -23 297 -1 545 -3 550 -3 6 -1 28 -17 50 -37 76 -69 240 -197 324 -253
l84 -56 -189 -2 c-104 -2 -607 -4 -1119 -5 -883 -3 -932 -4 -963 -21 -171 -96
-168 -328 6 -413 36 -18 116 -19 2017 -18 1814 0 2059 2 2195 19 258 32 593
121 798 211 149 66 435 217 462 244 3 3 25 18 50 34 54 35 239 176 295 225 85
75 264 260 337 347 278 336 489 750 593 1162 35 139 37 152 55 257 29 176 35
264 35 485 0 194 -7 311 -25 425 -101 650 -383 1217 -830 1666 -150 150 -195
190 -315 280 -233 176 -437 293 -680 392 -155 64 -392 137 -493 153 -20 3 -40
8 -43 10 -4 2 -24 6 -44 10 -21 3 -47 7 -59 10 -11 2 -57 8 -101 14 -44 6
-100 13 -125 16 -25 3 -722 7 -1550 8 -1237 2 -1512 0 -1545 -11z m3090 -1137
c139 -21 326 -74 455 -129 359 -153 652 -403 862 -737 104 -165 223 -474 244
-635 2 -16 6 -41 9 -55 19 -92 25 -364 11 -475 -23 -181 -49 -294 -103 -440
-203 -552 -672 -989 -1228 -1145 -77 -21 -95 -26 -150 -35 -16 -3 -37 -8 -45
-10 -49 -13 -146 -19 -305 -20 -228 0 -296 8 -483 56 -731 188 -1278 821
-1369 1584 -9 76 -9 319 0 405 26 257 118 526 255 755 205 341 531 618 903
766 96 38 275 89 359 103 19 3 53 8 75 12 22 3 41 7 43 9 6 6 424 -3 467 -9z"/>
<path d="M3670 4854 c-134 -34 -335 -118 -381 -160 -8 -8 -19 -14 -23 -14 -18
0 -169 -121 -241 -194 -79 -79 -175 -206 -228 -297 l-26 -46 192 -63 c106 -34
237 -77 292 -95 l100 -34 40 47 c98 114 187 180 316 236 l74 32 2 306 c1 284
0 307 -16 305 -9 0 -55 -11 -101 -23z"/>
<path d="M4240 4570 c0 -235 2 -310 12 -310 22 0 182 -83 233 -120 45 -34 105
-91 167 -161 l23 -27 180 60 c99 32 187 61 195 63 73 21 200 68 200 74 0 11
-70 124 -120 193 -61 84 -204 223 -298 291 -147 106 -321 185 -497 228 -44 10
-83 19 -87 19 -4 0 -7 -139 -8 -310z"/>
<path d="M3897 3821 c-132 -53 -215 -166 -222 -302 -8 -140 67 -267 190 -325
134 -62 266 -43 376 55 78 70 113 148 112 254 0 65 -5 87 -31 140 -63 126
-160 190 -297 195 -60 1 -92 -3 -128 -17z"/>
<path d="M2623 3648 c-45 -376 87 -782 352 -1083 24 -27 45 -48 48 -45 2 3 44
61 93 130 49 69 91 127 94 130 7 6 154 211 164 227 4 8 -6 32 -24 59 -71 102
-118 243 -127 374 -3 41 -7 77 -9 79 -3 3 -574 191 -581 191 -1 0 -5 -28 -10
-62z"/>
<path d="M5295 3680 c-44 -15 -168 -56 -275 -90 -107 -35 -198 -66 -201 -69
-4 -3 -9 -37 -13 -76 -12 -146 -48 -254 -123 -372 -18 -29 -33 -54 -33 -57 0
-8 338 -472 353 -484 27 -22 211 230 281 384 60 134 91 243 120 425 7 38 8
231 2 289 -2 19 -4 45 -5 58 -1 27 -6 27 -106 -8z"/>
<path d="M3682 2658 c-37 -51 -104 -142 -147 -203 -44 -60 -94 -130 -112 -153
-18 -24 -31 -47 -28 -52 14 -22 259 -107 360 -125 131 -23 362 -28 465 -10
139 24 357 93 403 128 15 11 2 32 -118 197 -74 102 -138 190 -142 195 -5 6
-25 33 -46 62 l-37 51 -53 -14 c-135 -37 -322 -36 -428 1 -23 8 -43 15 -45 15
-2 0 -34 -42 -72 -92z"/>
</g>
</svg>
